<?xml version="1.0" standalone="no"?>
<!DOCTYPE svg PUBLIC "-//W3C//DTD SVG 20010904//EN"
 "http://www.w3.org/TR/2001/REC-SVG-20010904/DTD/svg10.dtd">
<svg version="1.0" xmlns="http://www.w3.org/2000/svg"
 width="700.000000pt" height="700.000000pt" viewBox="0 0 700.000000 700.000000"
 preserveAspectRatio="xMidYMid meet">
<metadata>
Created by potrace 1.11, written by Peter Selinger 2001-2013
</metadata>
<g transform="translate(0.000000,700.000000) scale(0.100000,-0.100000)"
fill="#000000" stroke="none">
<path d="M3298 6995 c-2 -1 -41 -5 -88 -9 -100 -7 -225 -22 -295 -36 -27 -5
-61 -12 -75 -14 -284 -52 -587 -152 -857 -282 -480 -233 -896 -566 -1227 -984
-196 -248 -376 -553 -492 -838 -62 -151 -146 -411 -169 -520 -2 -9 -8 -37 -14
-62 -11 -49 -13 -63 -35 -195 -34 -204 -40 -302 -40 -570 0 -214 4 -288 25
-445 12 -89 12 -91 45 -268 4 -19 40 -160 78 -302 44 -164 192 -507 293 -678
24 -41 43 -76 43 -79 0 -3 42 -69 94 -146 335 -502 760 -884 1308 -1175 94
-50 304 -143 384 -171 32 -11 91 -32 129 -45 63 -22 307 -89 367 -100 13 -2
50 -9 83 -15 33 -6 71 -13 85 -16 14 -3 52 -8 85 -11 33 -3 63 -8 66 -9 15
-10 227 -20 409 -20 188 0 341 8 430 21 144 21 295 48 345 61 33 8 67 16 75
18 113 23 378 114 549 188 120 51 307 146 353 178 14 11 29 19 33 19 27 0 420
285 525 380 71 64 226 218 275 272 95 104 111 123 195 233 331 434 546 913
654 1456 14 70 28 155 32 190 3 35 8 67 10 70 9 17 19 214 18 399 0 188 -6
331 -19 420 -3 19 -7 56 -10 81 -3 25 -7 54 -9 65 -2 10 -11 60 -21 109 -68
365 -194 705 -395 1070 -54 98 -213 333 -294 433 -153 192 -324 369 -491 507
-33 28 -69 58 -79 68 -24 21 -192 143 -246 177 -385 248 -791 418 -1207 505
-99 20 -244 43 -393 60 -54 7 -526 16 -532 10z"/>
</g>
</svg>
