<?xml version="1.0" encoding="utf-8"?>
<!-- Generator: Adobe Illustrator 22.1.0, SVG Export Plug-In . SVG Version: 6.00 Build 0)  -->
<svg version="1.1" id="Layer_1" xmlns="http://www.w3.org/2000/svg" xmlns:xlink="http://www.w3.org/1999/xlink" x="0px" y="0px"
	 viewBox="0 0 512 512" style="enable-background:new 0 0 512 512;" xml:space="preserve">
<style type="text/css">
	.st0{fill:#FF697D;}
	.st1{fill:#009F96;}
	.st2{fill:#70E9D4;}
	.st3{fill:#333333;}
	.st4{fill:none;stroke:#FFFFFF;stroke-width:22.4304;stroke-linecap:round;stroke-linejoin:round;stroke-miterlimit:10;}
	.st5{fill:none;stroke:#333333;stroke-width:22.4304;stroke-linecap:round;stroke-linejoin:round;stroke-miterlimit:10;}
</style>
<g>
	<g>
		<ellipse class="st0" cx="255.8" cy="255.9" rx="111.9" ry="108.7"/>
		<path class="st1" d="M255.8,153.7c58.1,0,105.3,45.8,105.3,102.2S313.8,358,255.8,358s-105.3-45.8-105.3-102.2
			S197.7,153.7,255.8,153.7 M255.8,140.6c-65.4,0-118.4,51.6-118.4,115.2s53,115.2,118.4,115.2s118.4-51.6,118.4-115.2
			S321.2,140.6,255.8,140.6L255.8,140.6z"/>
	</g>
	<g>
		<path class="st2" d="M255,165.1c52.2,0,94.7,41.2,94.7,91.8c0,50.6-42.5,91.8-94.7,91.8s-94.7-41.2-94.7-91.8
			C160.3,206.3,202.8,165.1,255,165.1 M255,152.1c-59.5,0-107.8,47-107.8,104.9c0,57.9,48.3,104.9,107.8,104.9s107.8-47,107.8-104.9
			C362.8,199,314.5,152.1,255,152.1L255,152.1z"/>
	</g>
	<g>
		<path class="st3" d="M256,142.2c31.4,0,60.8,11.9,83,33.4c22.1,21.5,34.2,50,34.2,80.4s-12.2,58.9-34.2,80.4
			c-22.2,21.6-51.6,33.4-83,33.4s-60.8-11.9-83-33.4c-22.1-21.5-34.2-50-34.2-80.4s12.2-58.9,34.2-80.4
			C195.2,154,224.6,142.2,256,142.2 M256,132.8c-69.9,0-126.6,55.2-126.6,123.2S186.1,379.2,256,379.2S382.6,324,382.6,256
			S325.9,132.8,256,132.8L256,132.8z"/>
	</g>
	<path class="st4" d="M241.5,164.6c-22.7,0-47.4,14.8-60.6,35"/>
	<line class="st4" x1="165.7" y1="227.3" x2="165.7" y2="227.3"/>
	<line class="st5" x1="254.8" y1="312.1" x2="254.8" y2="312.1"/>
	<line class="st5" x1="256.7" y1="199.6" x2="256.7" y2="199.6"/>
	<line class="st5" x1="298.4" y1="293.7" x2="298.4" y2="293.7"/>
	<line class="st5" x1="298.4" y1="218.1" x2="298.4" y2="218.1"/>
	<line class="st5" x1="215" y1="216.2" x2="215" y2="216.2"/>
	<line class="st5" x1="215" y1="295.5" x2="215" y2="295.5"/>
	<line class="st5" x1="315.4" y1="256.8" x2="315.4" y2="256.8"/>
	<line class="st5" x1="198" y1="256.8" x2="198" y2="256.8"/>
</g>
<g>
</g>
<g>
</g>
<g>
</g>
<g>
</g>
<g>
</g>
<g>
</g>
<g>
</g>
<g>
</g>
<g>
</g>
<g>
</g>
<g>
</g>
<g>
</g>
<g>
</g>
<g>
</g>
<g>
</g>
</svg>
